<?xml version="1.0" standalone="no"?>
<!DOCTYPE svg PUBLIC "-//W3C//DTD SVG 20010904//EN"
 "http://www.w3.org/TR/2001/REC-SVG-20010904/DTD/svg10.dtd">
<svg version="1.0" xmlns="http://www.w3.org/2000/svg"
 width="311.000000pt" height="311.000000pt" viewBox="0 0 311.000000 311.000000"
 preserveAspectRatio="xMidYMid meet">
<metadata>
Created by potrace 1.11, written by Peter Selinger 2001-2013
</metadata>
<g transform="translate(0.000000,311.000000) scale(0.100000,-0.100000)"
fill="#000000" stroke="none">
<path d="M259 2364 c-106 -32 -201 -127 -234 -231 -25 -78 -17 -190 18 -264
32 -67 112 -146 185 -183 100 -51 246 -72 387 -55 103 12 247 41 290 59 23 9
299 87 360 101 22 5 47 12 55 16 19 8 18 8 60 17 19 4 46 11 60 16 30 10 128
39 275 80 61 16 133 37 160 45 28 8 172 49 320 90 149 42 277 79 285 82 8 3
20 7 25 8 6 2 62 17 125 34 119 32 190 39 250 26 39 -8 110 -45 110 -56 0 -9
5 -7 -165 -54 -71 -20 -152 -43 -180 -51 -27 -8 -60 -17 -73 -19 -13 -3 -42
-12 -65 -20 -44 -14 -123 -37 -145 -41 -7 -1 -43 -11 -80 -22 -193 -56 -736
-211 -797 -227 -67 -18 -231 -65 -394 -112 -74 -22 -137 -46 -139 -53 -3 -7 0
-10 6 -6 6 3 12 3 14 -2 2 -6 329 -103 392 -117 6 -1 18 -4 26 -7 19 -7 179
-53 250 -72 30 -8 237 -67 460 -131 223 -63 412 -117 420 -119 8 -2 22 -6 30
-9 17 -7 273 -77 299 -82 9 -2 16 -4 16 -5 0 -1 27 -9 60 -18 33 -9 60 -21 60
-27 0 -18 -92 -56 -146 -59 -64 -4 -117 4 -219 32 -128 36 -641 181 -725 206
-67 20 -165 47 -185 52 -3 0 -12 3 -20 7 -22 8 -201 58 -229 64 -14 2 -28 6
-33 9 -4 3 -16 7 -25 9 -10 2 -144 39 -298 83 -373 107 -420 116 -585 116
-126 0 -151 -2 -190 -16 -8 -3 -36 -13 -63 -23 -69 -24 -159 -95 -198 -155
-19 -29 -34 -55 -35 -59 0 -3 -5 -15 -10 -26 -5 -11 -9 -63 -9 -115 1 -81 4
-103 26 -150 44 -94 127 -160 250 -199 106 -33 260 11 346 100 56 57 81 104
67 126 -21 33 -40 26 -74 -28 -29 -45 -85 -92 -140 -117 -191 -84 -412 59
-412 268 0 144 97 260 262 311 67 21 232 28 316 14 85 -14 379 -90 519 -134
32 -10 340 -98 390 -112 17 -4 78 -21 138 -38 167 -48 296 -85 512 -145 110
-31 214 -61 230 -67 350 -114 523 -103 633 40 l33 44 -38 13 c-35 12 -380 111
-413 119 -18 4 -347 98 -440 125 -114 33 -267 77 -580 165 -168 47 -327 92
-355 100 -27 8 -62 17 -78 21 -15 3 -29 10 -32 14 -2 4 96 35 218 69 122 35
258 73 302 86 44 14 161 47 260 75 99 27 194 54 210 59 17 5 145 42 285 81
140 39 284 80 320 90 36 11 99 29 140 41 41 11 103 30 138 41 l62 20 -22 31
c-45 65 -98 101 -182 123 -47 12 -143 12 -196 0 -14 -3 -41 -9 -60 -12 -19 -4
-39 -9 -45 -13 -5 -3 -14 -6 -20 -7 -12 -3 -147 -40 -300 -84 -60 -18 -132
-38 -160 -45 -60 -16 -218 -61 -260 -74 -16 -5 -113 -33 -215 -61 -102 -28
-192 -54 -200 -57 -8 -4 -17 -7 -20 -8 -3 -1 -24 -5 -47 -10 -24 -4 -43 -11
-43 -14 0 -4 -8 -7 -17 -8 -10 -1 -112 -28 -228 -61 -373 -107 -462 -125 -600
-121 -247 7 -415 140 -418 329 -2 165 129 294 298 294 111 0 199 -50 261 -146
28 -45 60 -51 70 -14 7 31 -38 100 -99 149 -84 69 -236 96 -348 61z"/>
</g>
</svg>
